<svg xmlns="http://www.w3.org/2000/svg" xmlns:ffdec="https://www.free-decompiler.com/flash" xmlns:xlink="http://www.w3.org/1999/xlink" ffdec:objectType="frame" width="145.5px" height="19.25px"><g transform="matrix(1.0, 0.0, 0.0, 1.0, 60.05, 32.75)"><use ffdec:characterId="98" xlink:href="#shape0" width="105.6" height="15.4" transform="matrix(1.0, 0.0, 0.0, 1.0, 0.0, 0.0)"/><use ffdec:characterId="102" xlink:href="#button0" width="143.5" height="19.25" transform="matrix(1.0, 0.0, 0.0, 1.0, 11.45, -23.25)"/></g><defs><g id="shape0"><path fill="#cf6" fill-rule="evenodd" d="M-19.65 -30.0 L79.95 -30.0 Q82.0 -30.0 83.45 -28.55 84.95 -27.05 84.95 -25.0 L84.95 -15.6 -19.65 -15.6 -19.65 -30.0"/><path fill="none" stroke="#690" stroke-linecap="round" stroke-linejoin="round" stroke-width="1.0" d="M84.95 -15.6 L84.95 -25.0 Q84.95 -27.05 83.45 -28.55 82.0 -30.0 79.95 -30.0 L-19.65 -30.0"/></g><g id="button0"><g class="button" transform="matrix(1.0, 0.0, 0.0, 1.0, 0.0, 0.0)"><g class="button-frame" style="opacity:1" transform="matrix(1.0, 0.0, 0.0, 1.0, 0.0, 0.0)"><use ffdec:characterId="99" xlink:href="#text0" width="143.0" height="18.55" transform="matrix(1.0, 0.0, 0.0, 1.0027, -69.5, -7.25)"/></g></g></g><g id="text0"><g transform="matrix(1.0, 0.0, 0.0, 1.0, 0.0, 0.0)"><use xlink:href="#font_Verdana_k0" width="143.0" height="18.55" fill="#690" transform="matrix(0.2344, 0.0, 0.0, 0.2344, 46.1, 12.05)"/><use xlink:href="#font_Verdana_e0" width="143.0" height="18.55" fill="#690" transform="matrix(0.2344, 0.0, 0.0, 0.2344, 54.15, 12.05)"/><use xlink:href="#font_Verdana_l0" width="143.0" height="18.55" fill="#690" transform="matrix(0.2344, 0.0, 0.0, 0.2344, 62.1, 12.05)"/><use xlink:href="#font_Verdana_i0" width="143.0" height="18.55" fill="#690" transform="matrix(0.2344, 0.0, 0.0, 0.2344, 66.2, 12.05)"/><use xlink:href="#font_Verdana_m0" width="143.0" height="18.55" fill="#690" transform="matrix(0.2344, 0.0, 0.0, 0.2344, 70.3, 12.05)"/><use xlink:href="#font_Verdana_a0" width="143.0" height="18.55" fill="#690" transform="matrix(0.2344, 0.0, 0.0, 0.2344, 83.0, 12.05)"/><use xlink:href="#font_Verdana_t0" width="143.0" height="18.55" fill="#690" transform="matrix(0.2344, 0.0, 0.0, 0.2344, 91.0, 12.05)"/><use xlink:href="#font_Verdana_o0" width="143.0" height="18.55" fill="#690" transform="matrix(0.2344, 0.0, 0.0, 0.2344, 96.45, 12.05)"/><use xlink:href="#font_Verdana_r0" width="143.0" height="18.55" fill="#690" transform="matrix(0.2344, 0.0, 0.0, 0.2344, 104.7, 12.05)"/><use xlink:href="#font_Verdana_.0" width="143.0" height="18.55" fill="#690" transform="matrix(0.2344, 0.0, 0.0, 0.2344, 110.65, 12.05)"/><use xlink:href="#font_Verdana_c0" width="143.0" height="18.55" fill="#690" transform="matrix(0.2344, 0.0, 0.0, 0.2344, 115.0, 12.05)"/><use xlink:href="#font_Verdana_o0" width="143.0" height="18.55" fill="#690" transform="matrix(0.2344, 0.0, 0.0, 0.2344, 122.05, 12.05)"/><use xlink:href="#font_Verdana_m0" width="143.0" height="18.55" fill="#690" transform="matrix(0.2344, 0.0, 0.0, 0.2344, 130.3, 12.05)"/></g></g><g id="font_Verdana_k0"><path fill-rule="evenodd" d="M34.05 0.0 L23.25 -15.95 33.35 -28.05 22.95 -28.05 13.3 -15.7 13.3 -38.95 4.25 -38.95 4.25 0.0 13.3 0.0 13.3 -9.2 15.7 -12.2 23.6 0.0 34.05 0.0"/></g><g id="font_Verdana_e0"><path fill-rule="evenodd" d="M22.95 -17.65 L11.3 -17.65 Q11.5 -20.6 13.15 -21.95 14.85 -23.3 17.45 -23.3 20.25 -23.3 21.55 -21.9 22.9 -20.45 22.95 -17.65 M31.9 -12.35 L31.9 -15.5 Q31.9 -22.0 28.45 -25.45 25.0 -28.95 18.15 -28.95 10.75 -28.95 6.5 -24.85 2.2 -20.8 2.2 -13.85 2.2 -6.85 6.7 -3.05 11.2 0.75 19.65 0.75 L25.65 0.2 Q28.35 -0.35 31.4 -1.55 L31.4 -8.8 30.4 -8.8 Q28.85 -7.6 26.15 -6.6 23.5 -5.55 20.65 -5.55 16.15 -5.55 13.85 -7.3 11.5 -9.05 11.3 -12.35 L31.9 -12.35"/></g><g id="font_Verdana_l0"><path fill-rule="evenodd" d="M13.3 0.0 L13.3 -38.95 4.25 -38.95 4.25 0.0 13.3 0.0"/></g><g id="font_Verdana_i0"><path fill-rule="evenodd" d="M13.55 -32.05 L13.55 -38.95 4.0 -38.95 4.0 -32.05 13.55 -32.05 M13.3 0.0 L13.3 -28.05 4.25 -28.05 4.25 0.0 13.3 0.0"/></g><g id="font_Verdana_m0"><path fill-rule="evenodd" d="M31.7 -19.9 L31.7 -19.9 Q33.25 -20.8 34.3 -21.15 L36.5 -21.55 39.15 -21.15 Q40.1 -20.75 40.5 -19.85 40.95 -18.95 41.05 -17.5 L41.15 -14.0 41.15 0.0 50.15 0.0 50.15 -18.25 Q50.15 -23.4 47.8 -26.1 45.45 -28.85 40.9 -28.85 38.45 -28.85 35.85 -27.55 33.3 -26.25 30.6 -23.95 29.4 -26.35 27.3 -27.6 25.15 -28.85 22.4 -28.85 19.85 -28.85 17.7 -27.8 15.6 -26.8 13.25 -24.95 L13.25 -28.05 4.25 -28.05 4.25 0.0 13.25 0.0 13.25 -19.9 15.5 -21.0 Q16.75 -21.55 18.1 -21.55 L20.65 -21.15 Q21.55 -20.75 22.0 -19.85 22.45 -18.95 22.55 -17.5 L22.65 -14.0 22.65 0.0 31.7 0.0 31.7 -19.9"/></g><g id="font_Verdana_a0"><path fill-rule="evenodd" d="M21.25 -2.95 L21.25 0.0 30.2 0.0 30.2 -19.1 Q30.2 -24.15 26.8 -26.5 23.35 -28.85 15.7 -28.85 L9.25 -28.35 4.6 -27.45 4.6 -20.7 5.45 -20.7 9.05 -21.9 Q11.6 -22.7 13.8 -22.7 17.5 -22.7 19.4 -21.8 21.3 -20.9 21.3 -18.6 L21.3 -18.45 13.65 -17.75 Q9.95 -17.25 7.45 -16.15 4.9 -15.0 3.55 -13.05 2.15 -11.1 2.15 -8.05 2.15 -4.2 4.85 -1.7 7.55 0.75 11.55 0.75 L14.7 0.5 17.45 -0.4 Q18.4 -0.85 19.45 -1.65 L21.25 -2.95 M21.25 -7.35 L21.25 -7.35 18.85 -5.9 Q17.45 -5.35 16.1 -5.35 L13.6 -5.55 Q12.8 -5.8 12.2 -6.3 11.6 -6.8 11.45 -7.35 11.3 -7.9 11.3 -8.8 11.3 -10.1 12.05 -10.9 12.75 -11.7 14.1 -12.15 L17.3 -12.75 21.25 -13.15 21.25 -7.35"/></g><g id="font_Verdana_t0"><path fill-rule="evenodd" d="M22.2 -0.25 L22.2 -6.4 21.45 -6.4 Q21.0 -6.15 19.9 -5.85 L18.05 -5.55 Q16.35 -5.55 15.45 -6.05 14.6 -6.55 14.25 -7.45 13.85 -8.3 13.85 -9.4 L13.8 -12.0 13.8 -21.95 22.2 -21.95 22.2 -28.05 13.8 -28.05 13.8 -36.1 4.8 -36.1 4.8 -28.05 1.1 -28.05 1.1 -21.95 4.8 -21.95 4.8 -8.85 Q4.8 -3.7 7.35 -1.55 9.9 0.55 15.15 0.55 L19.15 0.35 22.2 -0.25"/></g><g id="font_Verdana_o0"><path fill-rule="evenodd" d="M21.9 -7.2 L21.9 -7.2 Q21.1 -6.2 20.0 -5.8 L17.65 -5.4 Q16.25 -5.4 15.15 -5.85 14.0 -6.3 13.2 -7.25 12.4 -8.3 11.95 -9.95 11.55 -11.65 11.55 -13.95 11.55 -16.55 12.05 -18.25 12.5 -19.95 13.35 -20.9 14.25 -21.95 15.3 -22.3 L17.6 -22.65 20.0 -22.25 Q21.15 -21.8 21.95 -20.8 22.75 -19.8 23.2 -18.1 23.65 -16.45 23.65 -13.95 23.65 -11.3 23.2 -9.75 22.75 -8.25 21.9 -7.2 M32.95 -14.0 L32.95 -14.0 Q32.95 -20.95 28.95 -24.95 24.95 -28.95 17.6 -28.95 10.35 -28.95 6.3 -24.95 2.2 -21.0 2.2 -14.0 2.2 -7.1 6.25 -3.1 10.3 0.9 17.6 0.9 24.9 0.9 28.95 -3.1 32.95 -7.1 32.95 -14.0"/></g><g id="font_Verdana_r0"><path fill-rule="evenodd" d="M24.6 -19.5 L24.6 -28.05 23.55 -28.15 22.5 -28.15 18.45 -27.3 Q16.25 -26.5 13.3 -23.95 L13.3 -28.05 4.25 -28.05 4.25 0.0 13.3 0.0 13.3 -18.8 16.45 -19.65 19.85 -19.9 21.95 -19.8 23.8 -19.5 24.6 -19.5"/></g><g id="font_Verdana_.0"><path fill-rule="evenodd" d="M13.95 0.0 L13.95 -9.8 4.6 -9.8 4.6 0.0 13.95 0.0"/></g><g id="font_Verdana_c0"><path fill-rule="evenodd" d="M18.9 0.75 L18.9 0.75 24.0 0.2 Q26.3 -0.4 28.45 -1.4 L28.45 -9.1 27.15 -9.1 25.95 -8.0 24.45 -6.95 22.2 -6.05 19.15 -5.65 Q15.5 -5.65 13.5 -7.75 11.55 -9.85 11.55 -13.9 11.55 -17.85 13.45 -20.1 15.4 -22.4 19.0 -22.4 L21.85 -22.05 24.1 -21.15 25.9 -19.95 27.15 -18.9 28.45 -18.9 28.45 -26.6 Q26.35 -27.6 23.9 -28.2 L18.6 -28.85 12.45 -28.0 Q9.45 -27.2 7.2 -25.4 4.85 -23.55 3.55 -20.7 2.2 -17.85 2.2 -13.9 2.2 -10.2 3.45 -7.4 4.65 -4.65 6.9 -2.8 9.15 -1.0 12.2 -0.1 15.2 0.75 18.9 0.75"/></g><g id="text1"><g transform="matrix(1.0, 0.0, 0.0, 1.0, 0.0, 0.0)"><use xlink:href="#font_Verdana_k0" width="143.0" height="18.55" fill="#c00" transform="matrix(0.2344, 0.0, 0.0, 0.2344, 46.1, 12.05)"/><use xlink:href="#font_Verdana_e0" width="143.0" height="18.55" fill="#c00" transform="matrix(0.2344, 0.0, 0.0, 0.2344, 54.15, 12.05)"/><use xlink:href="#font_Verdana_l0" width="143.0" height="18.55" fill="#c00" transform="matrix(0.2344, 0.0, 0.0, 0.2344, 62.1, 12.05)"/><use xlink:href="#font_Verdana_i0" width="143.0" height="18.55" fill="#c00" transform="matrix(0.2344, 0.0, 0.0, 0.2344, 66.2, 12.05)"/><use xlink:href="#font_Verdana_m0" width="143.0" height="18.55" fill="#c00" transform="matrix(0.2344, 0.0, 0.0, 0.2344, 70.3, 12.05)"/><use xlink:href="#font_Verdana_a0" width="143.0" height="18.55" fill="#c00" transform="matrix(0.2344, 0.0, 0.0, 0.2344, 83.0, 12.05)"/><use xlink:href="#font_Verdana_t0" width="143.0" height="18.55" fill="#c00" transform="matrix(0.2344, 0.0, 0.0, 0.2344, 91.0, 12.05)"/><use xlink:href="#font_Verdana_o0" width="143.0" height="18.55" fill="#c00" transform="matrix(0.2344, 0.0, 0.0, 0.2344, 96.45, 12.05)"/><use xlink:href="#font_Verdana_r0" width="143.0" height="18.55" fill="#c00" transform="matrix(0.2344, 0.0, 0.0, 0.2344, 104.7, 12.05)"/><use xlink:href="#font_Verdana_.0" width="143.0" height="18.55" fill="#c00" transform="matrix(0.2344, 0.0, 0.0, 0.2344, 110.65, 12.05)"/><use xlink:href="#font_Verdana_c0" width="143.0" height="18.55" fill="#c00" transform="matrix(0.2344, 0.0, 0.0, 0.2344, 115.0, 12.05)"/><use xlink:href="#font_Verdana_o0" width="143.0" height="18.55" fill="#c00" transform="matrix(0.2344, 0.0, 0.0, 0.2344, 122.05, 12.05)"/><use xlink:href="#font_Verdana_m0" width="143.0" height="18.55" fill="#c00" transform="matrix(0.2344, 0.0, 0.0, 0.2344, 130.3, 12.05)"/></g></g><g id="text2"><g transform="matrix(1.0, 0.0, 0.0, 1.0, 0.0, 0.0)"><use xlink:href="#font_Verdana_k0" width="143.0" height="18.55" fill="#c00" transform="matrix(0.2344, 0.0, 0.0, 0.2344, 46.1, 12.05)"/><use xlink:href="#font_Verdana_e0" width="143.0" height="18.55" fill="#c00" transform="matrix(0.2344, 0.0, 0.0, 0.2344, 54.15, 12.05)"/><use xlink:href="#font_Verdana_l0" width="143.0" height="18.55" fill="#c00" transform="matrix(0.2344, 0.0, 0.0, 0.2344, 62.1, 12.05)"/><use xlink:href="#font_Verdana_i0" width="143.0" height="18.55" fill="#c00" transform="matrix(0.2344, 0.0, 0.0, 0.2344, 66.2, 12.05)"/><use xlink:href="#font_Verdana_m0" width="143.0" height="18.55" fill="#c00" transform="matrix(0.2344, 0.0, 0.0, 0.2344, 70.3, 12.05)"/><use xlink:href="#font_Verdana_a0" width="143.0" height="18.55" fill="#c00" transform="matrix(0.2344, 0.0, 0.0, 0.2344, 83.0, 12.05)"/><use xlink:href="#font_Verdana_t0" width="143.0" height="18.55" fill="#c00" transform="matrix(0.2344, 0.0, 0.0, 0.2344, 91.0, 12.05)"/><use xlink:href="#font_Verdana_o0" width="143.0" height="18.55" fill="#c00" transform="matrix(0.2344, 0.0, 0.0, 0.2344, 96.45, 12.05)"/><use xlink:href="#font_Verdana_r0" width="143.0" height="18.55" fill="#c00" transform="matrix(0.2344, 0.0, 0.0, 0.2344, 104.7, 12.05)"/><use xlink:href="#font_Verdana_.0" width="143.0" height="18.55" fill="#c00" transform="matrix(0.2344, 0.0, 0.0, 0.2344, 110.65, 12.05)"/><use xlink:href="#font_Verdana_c0" width="143.0" height="18.55" fill="#c00" transform="matrix(0.2344, 0.0, 0.0, 0.2344, 115.0, 12.05)"/><use xlink:href="#font_Verdana_o0" width="143.0" height="18.55" fill="#c00" transform="matrix(0.2344, 0.0, 0.0, 0.2344, 122.05, 12.05)"/><use xlink:href="#font_Verdana_m0" width="143.0" height="18.55" fill="#c00" transform="matrix(0.2344, 0.0, 0.0, 0.2344, 130.3, 12.05)"/></g></g><g id="shape1"><path fill="#c00" fill-rule="evenodd" d="M66.5 -9.0 Q68.55 -9.0 70.0 -7.55 71.5 -6.05 71.5 -4.0 L71.5 4.25 Q71.5 6.3 70.0 7.75 68.55 9.25 66.5 9.25 L-42.0 9.25 Q-44.05 9.25 -45.55 7.75 -47.0 6.3 -47.0 4.25 L-47.0 -4.0 Q-47.0 -6.05 -45.55 -7.55 -44.05 -9.0 -42.0 -9.0 L66.5 -9.0"/><path fill="none" stroke="#690" stroke-linecap="round" stroke-linejoin="round" stroke-width="1.0" d="M66.5 -9.0 L-42.0 -9.0 Q-44.05 -9.0 -45.55 -7.55 -47.0 -6.05 -47.0 -4.0 L-47.0 4.25 Q-47.0 6.3 -45.55 7.75 -44.05 9.25 -42.0 9.25 L66.5 9.25 Q68.55 9.25 70.0 7.75 71.5 6.3 71.5 4.25 L71.5 -4.0 Q71.5 -6.05 70.0 -7.55 68.55 -9.0 66.5 -9.0 Z"/></g><style>.button-frame{pointer-events:none}</style></defs></svg>